<?xml version="1.0" encoding="utf-8"?>
<!-- Generator: Adobe Illustrator 23.0.0, SVG Export Plug-In . SVG Version: 6.00 Build 0)  -->
<svg version="1.1" id="圖層_1" xmlns="http://www.w3.org/2000/svg" xmlns:xlink="http://www.w3.org/1999/xlink" x="0px" y="0px"
	 viewBox="0 0 30 30" style="enable-background:new 0 0 30 30;" xml:space="preserve">
<style type="text/css">
	.st0{fill:#FFFFFF;}
</style>
<path class="st0" d="M17.9,15L29.4,3.5c0.9-0.9,0.9-2,0-2.9s-2-0.9-2.9,0L15,12.1L3.5,0.6c-0.9-0.9-2-0.9-2.9,0
	c-0.9,0.9-0.9,2,0,2.9L12.1,15L0.6,26.5c-0.9,0.9-0.9,2,0,2.9c0.9,0.9,2,0.9,2.9,0L15,17.9l11.5,11.5c0.9,0.9,2,0.9,2.9,0
	c0.9-0.9,0.9-2,0-2.9L17.9,15z"/>
</svg>
