<?xml version="1.0" encoding="utf-8"?>
<!-- Generator: Adobe Illustrator 23.0.0, SVG Export Plug-In . SVG Version: 6.00 Build 0)  -->
<svg version="1.1" id="圖層_1" xmlns="http://www.w3.org/2000/svg" xmlns:xlink="http://www.w3.org/1999/xlink" x="0px" y="0px"
	 viewBox="0 0 30 30" style="enable-background:new 0 0 30 30;" xml:space="preserve">
<style type="text/css">
	.st0{fill:#FFFFFF;}
</style>
<path class="st0" d="M24,16H6c-0.6,0-1-0.4-1-1v0c0-0.6,0.4-1,1-1h18c0.6,0,1,0.4,1,1v0C25,15.6,24.6,16,24,16z"/>
<path class="st0" d="M24,21H6c-0.6,0-1-0.4-1-1v0c0-0.6,0.4-1,1-1h18c0.6,0,1,0.4,1,1v0C25,20.6,24.6,21,24,21z"/>
<path class="st0" d="M24,11H6c-0.6,0-1-0.4-1-1v0c0-0.6,0.4-1,1-1h18c0.6,0,1,0.4,1,1v0C25,10.6,24.6,11,24,11z"/>
</svg>
